<svg xmlns="http://www.w3.org/2000/svg" width="320" height="140" viewBox="0 0 320 140" fill="none">
  <rect width="320" height="140" rx="10" fill="#F1EBE0"/>
  <rect x="40" y="20" width="148" height="100" rx="5" fill="#FFFEFA" stroke="#DDD4C4"/>
  <rect x="54" y="34" width="70" height="5" rx="2.5" fill="#5C5346"/>
  <rect x="54" y="50" width="48" height="3.5" rx="1.75" fill="#B8A992"/>
  <rect x="54" y="60" width="112" height="3" rx="1.5" fill="#E4DCCE"/>
  <rect x="54" y="70" width="104" height="3" rx="1.5" fill="#E4DCCE"/>
  <rect x="54" y="86" width="48" height="3.5" rx="1.75" fill="#B8A992"/>
  <rect x="54" y="96" width="10" height="10" rx="2" fill="#0F9D8A" opacity="0.35"/>
  <rect x="70" y="98" width="72" height="3" rx="1.5" fill="#E4DCCE"/>
  <rect x="54" y="110" width="10" height="10" rx="2" fill="#0F9D8A" opacity="0.55"/>
  <rect x="70" y="112" width="64" height="3" rx="1.5" fill="#E4DCCE"/>
  <rect x="204" y="28" width="76" height="84" rx="6" fill="#FFFEFA" stroke="#DDD4C4"/>
  <rect x="216" y="84" width="12" height="16" rx="1" fill="#C9BBA6"/>
  <rect x="232" y="68" width="12" height="32" rx="1" fill="#0F9D8A" opacity="0.45"/>
  <rect x="248" y="52" width="12" height="48" rx="1" fill="#0F9D8A" opacity="0.75"/>
</svg>
